STARTFONT 2.1
FONT -rmm-6x6-medium-r-normal--6-160-75-75-c-80-cp437
SIZE 6 75 75
FONTBOUNDINGBOX 6 6 0 0
STARTPROPERTIES 3
COPYRIGHT 2014, Red Mountain Makers. GNU GPLv3 or later.
FONT_ASCENT 6
FONT_DESCENT 1
ENDPROPERTIES
CHARS 256
STARTCHAR 0
ENCODING 0
DWIDTH 7 0
BBX 6 6 0 -1
BITMAP
78
CC
EC
CC
DC
78
ENDCHAR
STARTCHAR 1
ENCODING 1
DWIDTH 4 0
BBX 3 6 0 -1
BITMAP
00
A0
00
E0
40
00
ENDCHAR
STARTCHAR 2
ENCODING 2
DWIDTH 6 0
BBX 5 6 0 -1
BITMAP
70
A8
F8
88
D8
70
ENDCHAR
STARTCHAR 3
ENCODING 3
DWIDTH 6 0
BBX 5 6 0 -1
BITMAP
00
50
F8
F8
70
20
ENDCHAR
STARTCHAR 4
ENCODING 4
DWIDTH 6 0
BBX 5 6 0 -1
BITMAP
00
20
70
F8
70
20
ENDCHAR
STARTCHAR 5
ENCODING 5
DWIDTH 6 0
BBX 5 6 0 -1
BITMAP
00
20
20
D8
20
70
ENDCHAR
STARTCHAR 6
ENCODING 6
DWIDTH 6 0
BBX 5 6 0 -1
BITMAP
00
20
70
F8
A8
70
ENDCHAR
STARTCHAR 7
ENCODING 7
DWIDTH 3 0
BBX 2 6 0 -1
BITMAP
00
00
C0
C0
00
00
ENDCHAR
STARTCHAR 8
ENCODING 8
DWIDTH 7 0
BBX 6 6 0 -1
BITMAP
FC
FC
CC
CC
FC
FC
ENDCHAR
STARTCHAR 9
ENCODING 9
DWIDTH 5 0
BBX 4 6 0 -1
BITMAP
00
60
90
90
60
00
ENDCHAR
STARTCHAR 10
ENCODING 10
DWIDTH 7 0
BBX 6 6 0 -1
BITMAP
FC
CC
B4
B4
CC
FC
ENDCHAR
STARTCHAR 11
ENCODING 11
DWIDTH 6 0
BBX 5 6 0 -1
BITMAP
38
18
28
60
90
60
ENDCHAR
STARTCHAR 12
ENCODING 12
DWIDTH 4 0
BBX 3 6 0 -1
BITMAP
40
A0
A0
40
E0
40
ENDCHAR
STARTCHAR 13
ENCODING 13
DWIDTH 6 0
BBX 5 6 0 -1
BITMAP
78
48
78
40
C0
C0
ENDCHAR
STARTCHAR 14
ENCODING 14
DWIDTH 6 0
BBX 5 6 0 -1
BITMAP
78
78
48
58
D8
C0
ENDCHAR
STARTCHAR 15
ENCODING 15
DWIDTH 6 0
BBX 5 6 0 -1
BITMAP
A8
70
D8
70
A8
00
ENDCHAR
STARTCHAR 16
ENCODING 16
DWIDTH 5 0
BBX 4 6 0 -1
BITMAP
00
80
C0
F0
C0
80
ENDCHAR
STARTCHAR 17
ENCODING 17
DWIDTH 5 0
BBX 4 6 0 -1
BITMAP
00
10
30
F0
30
10
ENDCHAR
STARTCHAR 18
ENCODING 18
DWIDTH 4 0
BBX 3 6 0 -1
BITMAP
40
A0
00
00
A0
40
ENDCHAR
STARTCHAR 19
ENCODING 19
DWIDTH 4 0
BBX 3 6 0 -1
BITMAP
A0
A0
A0
A0
00
A0
ENDCHAR
STARTCHAR 20
ENCODING 20
DWIDTH 6 0
BBX 5 6 0 -1
BITMAP
78
A8
68
28
28
28
ENDCHAR
STARTCHAR 21
ENCODING 21
DWIDTH 6 0
BBX 5 6 0 -1
BITMAP
70
80
F0
78
08
70
ENDCHAR
STARTCHAR 22
ENCODING 22
DWIDTH 6 0
BBX 5 6 0 -1
BITMAP
00
00
00
F8
F8
F8
ENDCHAR
STARTCHAR 23
ENCODING 23
DWIDTH 4 0
BBX 3 6 0 -1
BITMAP
40
A0
00
A0
40
E0
ENDCHAR
STARTCHAR 24
ENCODING 24
DWIDTH 6 0
BBX 5 6 0 -1
BITMAP
20
70
A8
20
20
20
ENDCHAR
STARTCHAR 25
ENCODING 25
DWIDTH 6 0
BBX 5 6 0 -1
BITMAP
20
20
20
A8
70
20
ENDCHAR
STARTCHAR 26
ENCODING 26
DWIDTH 6 0
BBX 5 6 0 -1
BITMAP
00
20
10
F8
10
20
ENDCHAR
STARTCHAR 27
ENCODING 27
DWIDTH 6 0
BBX 5 6 0 -1
BITMAP
00
20
40
F8
40
20
ENDCHAR
STARTCHAR 28
ENCODING 28
DWIDTH 6 0
BBX 5 6 0 -1
BITMAP
00
80
80
F8
00
00
ENDCHAR
STARTCHAR 29
ENCODING 29
DWIDTH 6 0
BBX 5 6 0 -1
BITMAP
00
50
88
50
00
00
ENDCHAR
STARTCHAR 30
ENCODING 30
DWIDTH 6 0
BBX 5 6 0 -1
BITMAP
00
00
20
70
F8
00
ENDCHAR
STARTCHAR 31
ENCODING 31
DWIDTH 6 0
BBX 5 6 0 -1
BITMAP
00
00
F8
70
20
00
ENDCHAR
STARTCHAR 32
ENCODING 32
DWIDTH 4 0
BBX 3 6 0 -1
BITMAP
00
00
00
00
00
00
ENDCHAR
STARTCHAR 33
ENCODING 33
DWIDTH 2 0
BBX 1 6 0 -1
BITMAP
80
80
80
80
00
80
ENDCHAR
STARTCHAR 34
ENCODING 34
DWIDTH 4 0
BBX 3 6 0 -1
BITMAP
A0
A0
00
00
00
00
ENDCHAR
STARTCHAR 35
ENCODING 35
DWIDTH 6 0
BBX 5 6 0 -1
BITMAP
50
F8
50
F8
50
00
ENDCHAR
STARTCHAR 36
ENCODING 36
DWIDTH 5 0
BBX 4 6 0 -1
BITMAP
20
70
40
20
E0
40
ENDCHAR
STARTCHAR 37
ENCODING 37
DWIDTH 7 0
BBX 6 6 0 -1
BITMAP
E4
A8
D0
2C
54
9C
ENDCHAR
STARTCHAR 38
ENCODING 38
DWIDTH 5 0
BBX 4 6 0 -1
BITMAP
40
A0
40
D0
A0
50
ENDCHAR
STARTCHAR 39
ENCODING 39
DWIDTH 2 0
BBX 1 6 0 -1
BITMAP
80
80
00
00
00
00
ENDCHAR
STARTCHAR 40
ENCODING 40
DWIDTH 3 0
BBX 2 6 0 -1
BITMAP
40
80
80
80
80
40
ENDCHAR
STARTCHAR 41
ENCODING 41
DWIDTH 3 0
BBX 2 6 0 -1
BITMAP
80
40
40
40
40
80
ENDCHAR
STARTCHAR 42
ENCODING 42
DWIDTH 6 0
BBX 5 6 0 -1
BITMAP
00
A8
70
F8
70
A8
ENDCHAR
STARTCHAR 43
ENCODING 43
DWIDTH 4 0
BBX 3 6 0 -1
BITMAP
00
00
40
E0
40
00
ENDCHAR
STARTCHAR 44
ENCODING 44
DWIDTH 3 0
BBX 2 6 0 -1
BITMAP
00
00
00
00
40
80
ENDCHAR
STARTCHAR 45
ENCODING 45
DWIDTH 4 0
BBX 3 6 0 -1
BITMAP
00
00
E0
00
00
00
ENDCHAR
STARTCHAR 46
ENCODING 46
DWIDTH 2 0
BBX 1 6 0 -1
BITMAP
00
00
00
00
00
80
ENDCHAR
STARTCHAR 47
ENCODING 47
DWIDTH 4 0
BBX 3 6 0 -1
BITMAP
20
20
40
40
80
80
ENDCHAR
STARTCHAR 48
ENCODING 48
DWIDTH 4 0
BBX 3 6 0 -1
BITMAP
40
A0
A0
A0
A0
40
ENDCHAR
STARTCHAR 49
ENCODING 49
DWIDTH 4 0
BBX 3 6 0 -1
BITMAP
40
C0
40
40
40
E0
ENDCHAR
STARTCHAR 50
ENCODING 50
DWIDTH 4 0
BBX 3 6 0 -1
BITMAP
C0
20
20
40
80
E0
ENDCHAR
STARTCHAR 51
ENCODING 51
DWIDTH 4 0
BBX 3 6 0 -1
BITMAP
C0
20
40
20
20
C0
ENDCHAR
STARTCHAR 52
ENCODING 52
DWIDTH 5 0
BBX 4 6 0 -1
BITMAP
A0
A0
A0
F0
20
20
ENDCHAR
STARTCHAR 53
ENCODING 53
DWIDTH 4 0
BBX 3 6 0 -1
BITMAP
E0
80
C0
20
20
C0
ENDCHAR
STARTCHAR 54
ENCODING 54
DWIDTH 5 0
BBX 4 6 0 -1
BITMAP
60
80
E0
90
90
60
ENDCHAR
STARTCHAR 55
ENCODING 55
DWIDTH 4 0
BBX 3 6 0 -1
BITMAP
E0
20
20
40
40
40
ENDCHAR
STARTCHAR 56
ENCODING 56
DWIDTH 5 0
BBX 4 6 0 -1
BITMAP
60
90
60
90
90
60
ENDCHAR
STARTCHAR 57
ENCODING 57
DWIDTH 5 0
BBX 4 6 0 -1
BITMAP
60
90
70
10
10
60
ENDCHAR
STARTCHAR 58
ENCODING 58
DWIDTH 2 0
BBX 1 6 0 -1
BITMAP
00
80
00
00
80
00
ENDCHAR
STARTCHAR 59
ENCODING 59
DWIDTH 3 0
BBX 2 6 0 -1
BITMAP
00
40
00
00
40
80
ENDCHAR
STARTCHAR 60
ENCODING 60
DWIDTH 4 0
BBX 3 6 0 -1
BITMAP
00
20
40
80
40
20
ENDCHAR
STARTCHAR 61
ENCODING 61
DWIDTH 4 0
BBX 3 6 0 -1
BITMAP
00
00
E0
00
E0
00
ENDCHAR
STARTCHAR 62
ENCODING 62
DWIDTH 4 0
BBX 3 6 0 -1
BITMAP
00
80
40
20
40
80
ENDCHAR
STARTCHAR 63
ENCODING 63
DWIDTH 4 0
BBX 3 6 0 -1
BITMAP
40
A0
20
40
00
40
ENDCHAR
STARTCHAR 64
ENCODING 64
DWIDTH 6 0
BBX 5 6 0 -1
BITMAP
70
98
A8
98
80
70
ENDCHAR
STARTCHAR 65
ENCODING 65
DWIDTH 4 0
BBX 3 6 0 -1
BITMAP
40
A0
A0
E0
A0
A0
ENDCHAR
STARTCHAR 66
ENCODING 66
DWIDTH 4 0
BBX 3 6 0 -1
BITMAP
C0
A0
C0
A0
A0
C0
ENDCHAR
STARTCHAR 67
ENCODING 67
DWIDTH 4 0
BBX 3 6 0 -1
BITMAP
60
80
80
80
80
60
ENDCHAR
STARTCHAR 68
ENCODING 68
DWIDTH 4 0
BBX 3 6 0 -1
BITMAP
C0
A0
A0
A0
A0
C0
ENDCHAR
STARTCHAR 69
ENCODING 69
DWIDTH 4 0
BBX 3 6 0 -1
BITMAP
E0
80
C0
80
80
E0
ENDCHAR
STARTCHAR 70
ENCODING 70
DWIDTH 4 0
BBX 3 6 0 -1
BITMAP
E0
80
C0
80
80
80
ENDCHAR
STARTCHAR 71
ENCODING 71
DWIDTH 5 0
BBX 4 6 0 -1
BITMAP
60
80
80
B0
90
60
ENDCHAR
STARTCHAR 72
ENCODING 72
DWIDTH 4 0
BBX 3 6 0 -1
BITMAP
A0
A0
E0
A0
A0
A0
ENDCHAR
STARTCHAR 73
ENCODING 73
DWIDTH 4 0
BBX 3 6 0 -1
BITMAP
E0
40
40
40
40
E0
ENDCHAR
STARTCHAR 74
ENCODING 74
DWIDTH 5 0
BBX 4 6 0 -1
BITMAP
F0
20
20
20
A0
40
ENDCHAR
STARTCHAR 75
ENCODING 75
DWIDTH 5 0
BBX 4 6 0 -1
BITMAP
90
A0
C0
A0
90
90
ENDCHAR
STARTCHAR 76
ENCODING 76
DWIDTH 4 0
BBX 3 6 0 -1
BITMAP
80
80
80
80
80
E0
ENDCHAR
STARTCHAR 77
ENCODING 77
DWIDTH 6 0
BBX 5 6 0 -1
BITMAP
88
D8
A8
88
88
88
ENDCHAR
STARTCHAR 78
ENCODING 78
DWIDTH 5 0
BBX 4 6 0 -1
BITMAP
90
D0
B0
90
90
90
ENDCHAR
STARTCHAR 79
ENCODING 79
DWIDTH 5 0
BBX 4 6 0 -1
BITMAP
60
90
90
90
90
60
ENDCHAR
STARTCHAR 80
ENCODING 80
DWIDTH 4 0
BBX 3 6 0 -1
BITMAP
C0
A0
A0
C0
80
80
ENDCHAR
STARTCHAR 81
ENCODING 81
DWIDTH 5 0
BBX 4 6 0 -1
BITMAP
60
90
90
90
60
30
ENDCHAR
STARTCHAR 82
ENCODING 82
DWIDTH 4 0
BBX 3 6 0 -1
BITMAP
C0
A0
A0
C0
A0
A0
ENDCHAR
STARTCHAR 83
ENCODING 83
DWIDTH 4 0
BBX 3 6 0 -1
BITMAP
60
80
40
20
20
C0
ENDCHAR
STARTCHAR 84
ENCODING 84
DWIDTH 4 0
BBX 3 6 0 -1
BITMAP
E0
40
40
40
40
40
ENDCHAR
STARTCHAR 85
ENCODING 85
DWIDTH 5 0
BBX 4 6 0 -1
BITMAP
90
90
90
90
90
60
ENDCHAR
STARTCHAR 86
ENCODING 86
DWIDTH 6 0
BBX 5 6 0 -1
BITMAP
88
88
50
50
20
20
ENDCHAR
STARTCHAR 87
ENCODING 87
DWIDTH 6 0
BBX 5 6 0 -1
BITMAP
88
88
88
88
A8
50
ENDCHAR
STARTCHAR 88
ENCODING 88
DWIDTH 6 0
BBX 5 6 0 -1
BITMAP
88
50
20
20
50
88
ENDCHAR
STARTCHAR 89
ENCODING 89
DWIDTH 6 0
BBX 5 6 0 -1
BITMAP
88
88
50
20
20
20
ENDCHAR
STARTCHAR 90
ENCODING 90
DWIDTH 6 0
BBX 5 6 0 -1
BITMAP
F8
10
20
40
80
F8
ENDCHAR
STARTCHAR 91
ENCODING 91
DWIDTH 3 0
BBX 2 6 0 -1
BITMAP
C0
80
80
80
80
C0
ENDCHAR
STARTCHAR 92
ENCODING 92
DWIDTH 4 0
BBX 3 6 0 -1
BITMAP
80
80
40
40
20
20
ENDCHAR
STARTCHAR 93
ENCODING 93
DWIDTH 3 0
BBX 2 6 0 -1
BITMAP
C0
40
40
40
40
C0
ENDCHAR
STARTCHAR 94
ENCODING 94
DWIDTH 4 0
BBX 3 6 0 -1
BITMAP
40
A0
00
00
00
00
ENDCHAR
STARTCHAR 95
ENCODING 95
DWIDTH 4 0
BBX 3 6 0 -1
BITMAP
00
00
00
00
00
E0
ENDCHAR
STARTCHAR 96
ENCODING 96
DWIDTH 3 0
BBX 2 6 0 -1
BITMAP
80
40
00
00
00
00
ENDCHAR
STARTCHAR 97
ENCODING 97
DWIDTH 5 0
BBX 4 6 0 -1
BITMAP
00
00
00
60
A0
70
ENDCHAR
STARTCHAR 98
ENCODING 98
DWIDTH 4 0
BBX 3 6 0 -1
BITMAP
80
80
80
C0
A0
C0
ENDCHAR
STARTCHAR 99
ENCODING 99
DWIDTH 4 0
BBX 3 6 0 -1
BITMAP
00
00
00
60
80
60
ENDCHAR
STARTCHAR 100
ENCODING 100
DWIDTH 4 0
BBX 3 6 0 -1
BITMAP
20
20
20
60
A0
60
ENDCHAR
STARTCHAR 101
ENCODING 101
DWIDTH 4 0
BBX 3 6 0 -1
BITMAP
00
40
A0
E0
80
60
ENDCHAR
STARTCHAR 102
ENCODING 102
DWIDTH 4 0
BBX 3 6 0 -1
BITMAP
20
40
40
E0
40
40
ENDCHAR
STARTCHAR 103
ENCODING 103
DWIDTH 4 0
BBX 3 6 0 -1
BITMAP
00
60
A0
60
20
40
ENDCHAR
STARTCHAR 104
ENCODING 104
DWIDTH 4 0
BBX 3 6 0 -1
BITMAP
80
80
80
C0
A0
A0
ENDCHAR
STARTCHAR 105
ENCODING 105
DWIDTH 2 0
BBX 1 6 0 -1
BITMAP
00
80
00
80
80
80
ENDCHAR
STARTCHAR 106
ENCODING 106
DWIDTH 4 0
BBX 3 6 0 -1
BITMAP
00
20
00
20
A0
40
ENDCHAR
STARTCHAR 107
ENCODING 107
DWIDTH 4 0
BBX 3 6 0 -1
BITMAP
80
80
A0
C0
A0
A0
ENDCHAR
STARTCHAR 108
ENCODING 108
DWIDTH 2 0
BBX 1 6 0 -1
BITMAP
80
80
80
80
80
80
ENDCHAR
STARTCHAR 109
ENCODING 109
DWIDTH 6 0
BBX 5 6 0 -1
BITMAP
00
00
00
D0
A8
88
ENDCHAR
STARTCHAR 110
ENCODING 110
DWIDTH 4 0
BBX 3 6 0 -1
BITMAP
00
00
00
C0
A0
A0
ENDCHAR
STARTCHAR 111
ENCODING 111
DWIDTH 4 0
BBX 3 6 0 -1
BITMAP
00
00
00
40
A0
40
ENDCHAR
STARTCHAR 112
ENCODING 112
DWIDTH 4 0
BBX 3 6 0 -1
BITMAP
00
00
C0
A0
C0
80
ENDCHAR
STARTCHAR 113
ENCODING 113
DWIDTH 4 0
BBX 3 6 0 -1
BITMAP
00
00
60
A0
60
20
ENDCHAR
STARTCHAR 114
ENCODING 114
DWIDTH 4 0
BBX 3 6 0 -1
BITMAP
00
00
00
E0
80
80
ENDCHAR
STARTCHAR 115
ENCODING 115
DWIDTH 3 0
BBX 2 6 0 -1
BITMAP
00
00
40
80
40
80
ENDCHAR
STARTCHAR 116
ENCODING 116
DWIDTH 4 0
BBX 3 6 0 -1
BITMAP
00
00
40
E0
40
20
ENDCHAR
STARTCHAR 117
ENCODING 117
DWIDTH 5 0
BBX 4 6 0 -1
BITMAP
00
00
00
90
90
60
ENDCHAR
STARTCHAR 118
ENCODING 118
DWIDTH 4 0
BBX 3 6 0 -1
BITMAP
00
00
00
A0
A0
40
ENDCHAR
STARTCHAR 119
ENCODING 119
DWIDTH 6 0
BBX 5 6 0 -1
BITMAP
00
00
00
88
A8
50
ENDCHAR
STARTCHAR 120
ENCODING 120
DWIDTH 4 0
BBX 3 6 0 -1
BITMAP
00
00
00
A0
40
A0
ENDCHAR
STARTCHAR 121
ENCODING 121
DWIDTH 4 0
BBX 3 6 0 -1
BITMAP
00
00
A0
A0
40
80
ENDCHAR
STARTCHAR 122
ENCODING 122
DWIDTH 5 0
BBX 4 6 0 -1
BITMAP
00
00
F0
20
40
F0
ENDCHAR
STARTCHAR 123
ENCODING 123
DWIDTH 4 0
BBX 3 6 0 -1
BITMAP
00
20
40
C0
40
20
ENDCHAR
STARTCHAR 124
ENCODING 124
DWIDTH 2 0
BBX 1 6 0 -1
BITMAP
00
80
80
00
80
80
ENDCHAR
STARTCHAR 125
ENCODING 125
DWIDTH 4 0
BBX 3 6 0 -1
BITMAP
00
80
40
60
40
80
ENDCHAR
STARTCHAR 126
ENCODING 126
DWIDTH 5 0
BBX 4 6 0 -1
BITMAP
00
00
50
A0
00
00
ENDCHAR
STARTCHAR 127
ENCODING 127
DWIDTH 6 0
BBX 5 6 0 -1
BITMAP
20
50
88
88
F8
00
ENDCHAR
STARTCHAR 128
ENCODING 128
DWIDTH 1 0
BBX 0 6 0 -1
BITMAP
0
0
0
0
0
0
ENDCHAR
STARTCHAR 129
ENCODING 129
DWIDTH 1 0
BBX 0 6 0 -1
BITMAP
0
0
0
0
0
0
ENDCHAR
STARTCHAR 130
ENCODING 130
DWIDTH 1 0
BBX 0 6 0 -1
BITMAP
0
0
0
0
0
0
ENDCHAR
STARTCHAR 131
ENCODING 131
DWIDTH 1 0
BBX 0 6 0 -1
BITMAP
0
0
0
0
0
0
ENDCHAR
STARTCHAR 132
ENCODING 132
DWIDTH 1 0
BBX 0 6 0 -1
BITMAP
0
0
0
0
0
0
ENDCHAR
STARTCHAR 133
ENCODING 133
DWIDTH 1 0
BBX 0 6 0 -1
BITMAP
0
0
0
0
0
0
ENDCHAR
STARTCHAR 134
ENCODING 134
DWIDTH 1 0
BBX 0 6 0 -1
BITMAP
0
0
0
0
0
0
ENDCHAR
STARTCHAR 135
ENCODING 135
DWIDTH 1 0
BBX 0 6 0 -1
BITMAP
0
0
0
0
0
0
ENDCHAR
STARTCHAR 136
ENCODING 136
DWIDTH 1 0
BBX 0 6 0 -1
BITMAP
0
0
0
0
0
0
ENDCHAR
STARTCHAR 137
ENCODING 137
DWIDTH 1 0
BBX 0 6 0 -1
BITMAP
0
0
0
0
0
0
ENDCHAR
STARTCHAR 138
ENCODING 138
DWIDTH 1 0
BBX 0 6 0 -1
BITMAP
0
0
0
0
0
0
ENDCHAR
STARTCHAR 139
ENCODING 139
DWIDTH 1 0
BBX 0 6 0 -1
BITMAP
0
0
0
0
0
0
ENDCHAR
STARTCHAR 140
ENCODING 140
DWIDTH 1 0
BBX 0 6 0 -1
BITMAP
0
0
0
0
0
0
ENDCHAR
STARTCHAR 141
ENCODING 141
DWIDTH 1 0
BBX 0 6 0 -1
BITMAP
0
0
0
0
0
0
ENDCHAR
STARTCHAR 142
ENCODING 142
DWIDTH 1 0
BBX 0 6 0 -1
BITMAP
0
0
0
0
0
0
ENDCHAR
STARTCHAR 143
ENCODING 143
DWIDTH 1 0
BBX 0 6 0 -1
BITMAP
0
0
0
0
0
0
ENDCHAR
STARTCHAR 144
ENCODING 144
DWIDTH 1 0
BBX 0 6 0 -1
BITMAP
0
0
0
0
0
0
ENDCHAR
STARTCHAR 145
ENCODING 145
DWIDTH 1 0
BBX 0 6 0 -1
BITMAP
0
0
0
0
0
0
ENDCHAR
STARTCHAR 146
ENCODING 146
DWIDTH 1 0
BBX 0 6 0 -1
BITMAP
0
0
0
0
0
0
ENDCHAR
STARTCHAR 147
ENCODING 147
DWIDTH 1 0
BBX 0 6 0 -1
BITMAP
0
0
0
0
0
0
ENDCHAR
STARTCHAR 148
ENCODING 148
DWIDTH 1 0
BBX 0 6 0 -1
BITMAP
0
0
0
0
0
0
ENDCHAR
STARTCHAR 149
ENCODING 149
DWIDTH 1 0
BBX 0 6 0 -1
BITMAP
0
0
0
0
0
0
ENDCHAR
STARTCHAR 150
ENCODING 150
DWIDTH 1 0
BBX 0 6 0 -1
BITMAP
0
0
0
0
0
0
ENDCHAR
STARTCHAR 151
ENCODING 151
DWIDTH 1 0
BBX 0 6 0 -1
BITMAP
0
0
0
0
0
0
ENDCHAR
STARTCHAR 152
ENCODING 152
DWIDTH 1 0
BBX 0 6 0 -1
BITMAP
0
0
0
0
0
0
ENDCHAR
STARTCHAR 153
ENCODING 153
DWIDTH 1 0
BBX 0 6 0 -1
BITMAP
0
0
0
0
0
0
ENDCHAR
STARTCHAR 154
ENCODING 154
DWIDTH 1 0
BBX 0 6 0 -1
BITMAP
0
0
0
0
0
0
ENDCHAR
STARTCHAR 155
ENCODING 155
DWIDTH 1 0
BBX 0 6 0 -1
BITMAP
0
0
0
0
0
0
ENDCHAR
STARTCHAR 156
ENCODING 156
DWIDTH 1 0
BBX 0 6 0 -1
BITMAP
0
0
0
0
0
0
ENDCHAR
STARTCHAR 157
ENCODING 157
DWIDTH 1 0
BBX 0 6 0 -1
BITMAP
0
0
0
0
0
0
ENDCHAR
STARTCHAR 158
ENCODING 158
DWIDTH 1 0
BBX 0 6 0 -1
BITMAP
0
0
0
0
0
0
ENDCHAR
STARTCHAR 159
ENCODING 159
DWIDTH 1 0
BBX 0 6 0 -1
BITMAP
0
0
0
0
0
0
ENDCHAR
STARTCHAR 160
ENCODING 160
DWIDTH 1 0
BBX 0 6 0 -1
BITMAP
0
0
0
0
0
0
ENDCHAR
STARTCHAR 161
ENCODING 161
DWIDTH 2 0
BBX 1 6 0 -1
BITMAP
80
00
80
80
80
80
ENDCHAR
STARTCHAR 162
ENCODING 162
DWIDTH 5 0
BBX 4 6 0 -1
BITMAP
20
70
A0
A0
70
20
ENDCHAR
STARTCHAR 163
ENCODING 163
DWIDTH 6 0
BBX 5 6 0 -1
BITMAP
30
48
E0
40
40
F0
ENDCHAR
STARTCHAR 164
ENCODING 164
DWIDTH 5 0
BBX 4 6 0 -1
BITMAP
30
40
E0
E0
40
30
ENDCHAR
STARTCHAR 165
ENCODING 165
DWIDTH 6 0
BBX 5 6 0 -1
BITMAP
88
50
20
F8
F8
20
ENDCHAR
STARTCHAR 166
ENCODING 166
DWIDTH 1 0
BBX 0 6 0 -1
BITMAP
0
0
0
0
0
0
ENDCHAR
STARTCHAR 167
ENCODING 167
DWIDTH 5 0
BBX 4 6 0 -1
BITMAP
70
C0
A0
50
30
E0
ENDCHAR
STARTCHAR 168
ENCODING 168
DWIDTH 1 0
BBX 0 6 0 -1
BITMAP
0
0
0
0
0
0
ENDCHAR
STARTCHAR 169
ENCODING 169
DWIDTH 7 0
BBX 6 6 0 -1
BITMAP
78
84
B4
C4
B4
78
ENDCHAR
STARTCHAR 170
ENCODING 170
DWIDTH 5 0
BBX 4 6 0 -1
BITMAP
00
60
A0
70
00
F0
ENDCHAR
STARTCHAR 171
ENCODING 171
DWIDTH 7 0
BBX 6 6 0 -1
BITMAP
00
24
48
90
48
24
ENDCHAR
STARTCHAR 172
ENCODING 172
DWIDTH 6 0
BBX 5 6 0 -1
BITMAP
F8
08
08
00
00
00
ENDCHAR
STARTCHAR 173
ENCODING 173
DWIDTH 3 0
BBX 2 6 0 -1
BITMAP
00
00
C0
00
00
00
ENDCHAR
STARTCHAR 174
ENCODING 174
DWIDTH 7 0
BBX 6 6 0 -1
BITMAP
78
B4
AC
B4
AC
78
ENDCHAR
STARTCHAR 175
ENCODING 175
DWIDTH 4 0
BBX 3 6 0 -1
BITMAP
E0
00
00
00
00
00
ENDCHAR
STARTCHAR 176
ENCODING 176
DWIDTH 4 0
BBX 3 6 0 -1
BITMAP
40
A0
40
00
00
00
ENDCHAR
STARTCHAR 177
ENCODING 177
DWIDTH 4 0
BBX 3 6 0 -1
BITMAP
00
40
E0
40
00
E0
ENDCHAR
STARTCHAR 178
ENCODING 178
DWIDTH 3 0
BBX 2 6 0 -1
BITMAP
C0
40
80
C0
00
00
ENDCHAR
STARTCHAR 179
ENCODING 179
DWIDTH 4 0
BBX 3 6 0 -1
BITMAP
E0
20
60
E0
00
00
ENDCHAR
STARTCHAR 180
ENCODING 180
DWIDTH 1 0
BBX 0 6 0 -1
BITMAP
0
0
0
0
0
0
ENDCHAR
STARTCHAR 181
ENCODING 181
DWIDTH 6 0
BBX 5 6 0 -1
BITMAP
00
90
90
90
E8
80
ENDCHAR
STARTCHAR 182
ENCODING 182
DWIDTH 1 0
BBX 0 6 0 -1
BITMAP
0
0
0
0
0
0
ENDCHAR
STARTCHAR 183
ENCODING 183
DWIDTH 2 0
BBX 1 6 0 -1
BITMAP
00
00
80
00
00
00
ENDCHAR
STARTCHAR 184
ENCODING 184
DWIDTH 1 0
BBX 0 6 0 -1
BITMAP
0
0
0
0
0
0
ENDCHAR
STARTCHAR 185
ENCODING 185
DWIDTH 4 0
BBX 3 6 0 -1
BITMAP
C0
40
40
E0
00
00
ENDCHAR
STARTCHAR 186
ENCODING 186
DWIDTH 4 0
BBX 3 6 0 -1
BITMAP
00
40
A0
40
00
E0
ENDCHAR
STARTCHAR 187
ENCODING 187
DWIDTH 7 0
BBX 6 6 0 -1
BITMAP
00
90
48
24
48
90
ENDCHAR
STARTCHAR 188
ENCODING 188
DWIDTH 5 0
BBX 4 6 0 -1
BITMAP
00
70
A0
B0
A0
70
ENDCHAR
STARTCHAR 189
ENCODING 189
DWIDTH 1 0
BBX 0 6 0 -1
BITMAP
0
0
0
0
0
0
ENDCHAR
STARTCHAR 190
ENCODING 190
DWIDTH 1 0
BBX 0 6 0 -1
BITMAP
0
0
0
0
0
0
ENDCHAR
STARTCHAR 191
ENCODING 191
DWIDTH 4 0
BBX 3 6 0 -1
BITMAP
40
00
40
80
A0
40
ENDCHAR
STARTCHAR 192
ENCODING 192
DWIDTH 1 0
BBX 0 6 0 -1
BITMAP
0
0
0
0
0
0
ENDCHAR
STARTCHAR 193
ENCODING 193
DWIDTH 1 0
BBX 0 6 0 -1
BITMAP
0
0
0
0
0
0
ENDCHAR
STARTCHAR 194
ENCODING 194
DWIDTH 1 0
BBX 0 6 0 -1
BITMAP
0
0
0
0
0
0
ENDCHAR
STARTCHAR 195
ENCODING 195
DWIDTH 1 0
BBX 0 6 0 -1
BITMAP
0
0
0
0
0
0
ENDCHAR
STARTCHAR 196
ENCODING 196
DWIDTH 1 0
BBX 0 6 0 -1
BITMAP
0
0
0
0
0
0
ENDCHAR
STARTCHAR 197
ENCODING 197
DWIDTH 1 0
BBX 0 6 0 -1
BITMAP
0
0
0
0
0
0
ENDCHAR
STARTCHAR 198
ENCODING 198
DWIDTH 6 0
BBX 5 6 0 -1
BITMAP
00
38
50
58
F0
98
ENDCHAR
STARTCHAR 199
ENCODING 199
DWIDTH 1 0
BBX 0 6 0 -1
BITMAP
0
0
0
0
0
0
ENDCHAR
STARTCHAR 200
ENCODING 200
DWIDTH 1 0
BBX 0 6 0 -1
BITMAP
0
0
0
0
0
0
ENDCHAR
STARTCHAR 201
ENCODING 201
DWIDTH 1 0
BBX 0 6 0 -1
BITMAP
0
0
0
0
0
0
ENDCHAR
STARTCHAR 202
ENCODING 202
DWIDTH 1 0
BBX 0 6 0 -1
BITMAP
0
0
0
0
0
0
ENDCHAR
STARTCHAR 203
ENCODING 203
DWIDTH 1 0
BBX 0 6 0 -1
BITMAP
0
0
0
0
0
0
ENDCHAR
STARTCHAR 204
ENCODING 204
DWIDTH 1 0
BBX 0 6 0 -1
BITMAP
0
0
0
0
0
0
ENDCHAR
STARTCHAR 205
ENCODING 205
DWIDTH 1 0
BBX 0 6 0 -1
BITMAP
0
0
0
0
0
0
ENDCHAR
STARTCHAR 206
ENCODING 206
DWIDTH 1 0
BBX 0 6 0 -1
BITMAP
0
0
0
0
0
0
ENDCHAR
STARTCHAR 207
ENCODING 207
DWIDTH 1 0
BBX 0 6 0 -1
BITMAP
0
0
0
0
0
0
ENDCHAR
STARTCHAR 208
ENCODING 208
DWIDTH 1 0
BBX 0 6 0 -1
BITMAP
0
0
0
0
0
0
ENDCHAR
STARTCHAR 209
ENCODING 209
DWIDTH 1 0
BBX 0 6 0 -1
BITMAP
0
0
0
0
0
0
ENDCHAR
STARTCHAR 210
ENCODING 210
DWIDTH 1 0
BBX 0 6 0 -1
BITMAP
0
0
0
0
0
0
ENDCHAR
STARTCHAR 211
ENCODING 211
DWIDTH 1 0
BBX 0 6 0 -1
BITMAP
0
0
0
0
0
0
ENDCHAR
STARTCHAR 212
ENCODING 212
DWIDTH 1 0
BBX 0 6 0 -1
BITMAP
0
0
0
0
0
0
ENDCHAR
STARTCHAR 213
ENCODING 213
DWIDTH 1 0
BBX 0 6 0 -1
BITMAP
0
0
0
0
0
0
ENDCHAR
STARTCHAR 214
ENCODING 214
DWIDTH 1 0
BBX 0 6 0 -1
BITMAP
0
0
0
0
0
0
ENDCHAR
STARTCHAR 215
ENCODING 215
DWIDTH 4 0
BBX 3 6 0 -1
BITMAP
00
A0
40
A0
00
00
ENDCHAR
STARTCHAR 216
ENCODING 216
DWIDTH 1 0
BBX 0 6 0 -1
BITMAP
0
0
0
0
0
0
ENDCHAR
STARTCHAR 217
ENCODING 217
DWIDTH 1 0
BBX 0 6 0 -1
BITMAP
0
0
0
0
0
0
ENDCHAR
STARTCHAR 218
ENCODING 218
DWIDTH 1 0
BBX 0 6 0 -1
BITMAP
0
0
0
0
0
0
ENDCHAR
STARTCHAR 219
ENCODING 219
DWIDTH 1 0
BBX 0 6 0 -1
BITMAP
0
0
0
0
0
0
ENDCHAR
STARTCHAR 220
ENCODING 220
DWIDTH 1 0
BBX 0 6 0 -1
BITMAP
0
0
0
0
0
0
ENDCHAR
STARTCHAR 221
ENCODING 221
DWIDTH 1 0
BBX 0 6 0 -1
BITMAP
0
0
0
0
0
0
ENDCHAR
STARTCHAR 222
ENCODING 222
DWIDTH 1 0
BBX 0 6 0 -1
BITMAP
0
0
0
0
0
0
ENDCHAR
STARTCHAR 223
ENCODING 223
DWIDTH 1 0
BBX 0 6 0 -1
BITMAP
0
0
0
0
0
0
ENDCHAR
STARTCHAR 224
ENCODING 224
DWIDTH 1 0
BBX 0 6 0 -1
BITMAP
0
0
0
0
0
0
ENDCHAR
STARTCHAR 225
ENCODING 225
DWIDTH 1 0
BBX 0 6 0 -1
BITMAP
0
0
0
0
0
0
ENDCHAR
STARTCHAR 226
ENCODING 226
DWIDTH 1 0
BBX 0 6 0 -1
BITMAP
0
0
0
0
0
0
ENDCHAR
STARTCHAR 227
ENCODING 227
DWIDTH 1 0
BBX 0 6 0 -1
BITMAP
0
0
0
0
0
0
ENDCHAR
STARTCHAR 228
ENCODING 228
DWIDTH 1 0
BBX 0 6 0 -1
BITMAP
0
0
0
0
0
0
ENDCHAR
STARTCHAR 229
ENCODING 229
DWIDTH 1 0
BBX 0 6 0 -1
BITMAP
0
0
0
0
0
0
ENDCHAR
STARTCHAR 230
ENCODING 230
DWIDTH 1 0
BBX 0 6 0 -1
BITMAP
0
0
0
0
0
0
ENDCHAR
STARTCHAR 231
ENCODING 231
DWIDTH 1 0
BBX 0 6 0 -1
BITMAP
0
0
0
0
0
0
ENDCHAR
STARTCHAR 232
ENCODING 232
DWIDTH 1 0
BBX 0 6 0 -1
BITMAP
0
0
0
0
0
0
ENDCHAR
STARTCHAR 233
ENCODING 233
DWIDTH 1 0
BBX 0 6 0 -1
BITMAP
0
0
0
0
0
0
ENDCHAR
STARTCHAR 234
ENCODING 234
DWIDTH 1 0
BBX 0 6 0 -1
BITMAP
0
0
0
0
0
0
ENDCHAR
STARTCHAR 235
ENCODING 235
DWIDTH 1 0
BBX 0 6 0 -1
BITMAP
0
0
0
0
0
0
ENDCHAR
STARTCHAR 236
ENCODING 236
DWIDTH 1 0
BBX 0 6 0 -1
BITMAP
0
0
0
0
0
0
ENDCHAR
STARTCHAR 237
ENCODING 237
DWIDTH 1 0
BBX 0 6 0 -1
BITMAP
0
0
0
0
0
0
ENDCHAR
STARTCHAR 238
ENCODING 238
DWIDTH 1 0
BBX 0 6 0 -1
BITMAP
0
0
0
0
0
0
ENDCHAR
STARTCHAR 239
ENCODING 239
DWIDTH 1 0
BBX 0 6 0 -1
BITMAP
0
0
0
0
0
0
ENDCHAR
STARTCHAR 240
ENCODING 240
DWIDTH 1 0
BBX 0 6 0 -1
BITMAP
0
0
0
0
0
0
ENDCHAR
STARTCHAR 241
ENCODING 241
DWIDTH 1 0
BBX 0 6 0 -1
BITMAP
0
0
0
0
0
0
ENDCHAR
STARTCHAR 242
ENCODING 242
DWIDTH 1 0
BBX 0 6 0 -1
BITMAP
0
0
0
0
0
0
ENDCHAR
STARTCHAR 243
ENCODING 243
DWIDTH 1 0
BBX 0 6 0 -1
BITMAP
0
0
0
0
0
0
ENDCHAR
STARTCHAR 244
ENCODING 244
DWIDTH 1 0
BBX 0 6 0 -1
BITMAP
0
0
0
0
0
0
ENDCHAR
STARTCHAR 245
ENCODING 245
DWIDTH 1 0
BBX 0 6 0 -1
BITMAP
0
0
0
0
0
0
ENDCHAR
STARTCHAR 246
ENCODING 246
DWIDTH 1 0
BBX 0 6 0 -1
BITMAP
0
0
0
0
0
0
ENDCHAR
STARTCHAR 247
ENCODING 247
DWIDTH 6 0
BBX 5 6 0 -1
BITMAP
00
20
00
F8
00
20
ENDCHAR
STARTCHAR 248
ENCODING 248
DWIDTH 1 0
BBX 0 6 0 -1
BITMAP
0
0
0
0
0
0
ENDCHAR
STARTCHAR 249
ENCODING 249
DWIDTH 1 0
BBX 0 6 0 -1
BITMAP
0
0
0
0
0
0
ENDCHAR
STARTCHAR 250
ENCODING 250
DWIDTH 1 0
BBX 0 6 0 -1
BITMAP
0
0
0
0
0
0
ENDCHAR
STARTCHAR 251
ENCODING 251
DWIDTH 1 0
BBX 0 6 0 -1
BITMAP
0
0
0
0
0
0
ENDCHAR
STARTCHAR 252
ENCODING 252
DWIDTH 1 0
BBX 0 6 0 -1
BITMAP
0
0
0
0
0
0
ENDCHAR
STARTCHAR 253
ENCODING 253
DWIDTH 1 0
BBX 0 6 0 -1
BITMAP
0
0
0
0
0
0
ENDCHAR
STARTCHAR 254
ENCODING 254
DWIDTH 1 0
BBX 0 6 0 -1
BITMAP
0
0
0
0
0
0
ENDCHAR
STARTCHAR 255
ENCODING 255
DWIDTH 1 0
BBX 0 6 0 -1
BITMAP
0
0
0
0
0
0
ENDCHAR
ENDFONT
